<svg xmlns="http://www.w3.org/2000/svg" viewBox="0 0 16 16" fill="none">
  <rect x="1" y="1" width="14" height="14" rx="3" fill="currentColor" opacity="0.15"/>
  <path d="M10.8 5.2c-.1-.7-.8-1.1-1.5-1.2-.9-.1-1.7.2-2.4.6-.5.3-.9.7-1.2 1.1-.1.2 0 .3.1.2.5-.3 1-.5 1.6-.6.6-.1 1.1 0 1.4.4.2.3.1.7-.1 1-.3.4-.7.7-1.2.9-.7.3-1.4.6-1.8 1.2-.3.5-.3 1.1 0 1.6.3.4.7.6 1.2.6.6 0 1.2-.3 1.6-.7.4-.4.6-.9.6-1.4 0-.2.1-.3.2-.4.3-.2.5-.5.7-.8.3-.6.4-1.2.3-1.8.2-.3.4-.5.4-.7zM8.4 10.6c-.2.3-.6.5-1 .5-.3 0-.5-.2-.5-.4 0-.4.3-.7.7-.9.3-.2.7-.3 1-.5 0 .5-.1 1-.2 1.3z" fill="currentColor"/>
</svg>
